<svg width="45" height="45" viewBox="0 0 45 45" fill="none" xmlns="http://www.w3.org/2000/svg">
<path d="M22.5 0C10.08 0 0 10.08 0 22.5C0 34.92 10.08 45 22.5 45C34.92 45 45 34.92 45 22.5C45 10.08 34.92 0 22.5 0ZM34.5375 31.815L33.1425 33.21C33.0975 33.255 33.075 33.2775 33.03 33.3C31.86 34.3575 30.195 34.8975 28.2375 34.8975C27.2925 34.8975 26.3025 34.7625 25.245 34.515C21.915 33.705 18.5625 31.7475 15.8175 29.0025C13.0725 26.2575 11.16 22.95 10.395 19.6425C9.6525 16.425 10.1475 13.635 11.745 11.925C11.7675 11.9025 11.79 11.88 11.79 11.8575L13.185 10.4625C13.7025 9.945 14.4225 9.6525 15.165 9.6525C15.8625 9.6525 16.4925 9.9 16.9425 10.3725L20.43 13.86C21.465 14.895 21.51 16.8075 20.52 17.7975L19.1925 19.125C17.7975 20.5425 17.6175 23.49 19.4625 25.335C21.375 27.2475 24.4575 27.1575 25.8525 25.785L27.1575 24.48C27.675 23.9625 28.395 23.67 29.1375 23.67C29.835 23.67 30.465 23.9175 30.915 24.39L34.4025 27.8775C35.4825 28.89 35.5275 30.8025 34.5375 31.815Z" fill="black"/>
</svg>
